<?xml version="1.0" encoding="iso-8859-1"?>
<!-- Generator: Adobe Illustrator 18.1.1, SVG Export Plug-In . SVG Version: 6.00 Build 0)  -->
<svg version="1.1" id="Capa_1" xmlns="http://www.w3.org/2000/svg" xmlns:xlink="http://www.w3.org/1999/xlink" x="0px" y="0px"
	 viewBox="0 0 25.812 25.812" style="enable-background:new 0 0 25.812 25.812;" xml:space="preserve">
<g>
	<g>
		<g>
			<path style="fill:#030104;" d="M12.911,1.113c4.794,0,8.694,3.902,8.694,8.699c0,4.796-3.902,8.698-8.698,8.699
				c-4.797-0.001-8.7-3.903-8.7-8.699c0-4.797,3.902-8.699,8.701-8.699L12.911,1.113 M12.91,0h-0.002c0,0-0.001,0-0.002,0
				C7.488,0,3.093,4.394,3.093,9.813c0,5.417,4.396,9.812,9.813,9.813c5.416-0.001,9.812-4.396,9.812-9.813
				C22.719,4.392,18.324,0,12.91,0L12.91,0z"/>
		</g>
	</g>
	<g>
		<path style="fill:#030104;" d="M13.908,7.875c0.878-3.251-0.979-5.329-3.473-5.091c-1.176,0.115-2.355,1.62-1.631,2.99
			c0.679,1.284,2.1,1.165,2.535,2.629C11.745,7.847,12.552,7.222,13.908,7.875z"/>
	</g>
	<g>
		<g>
			<path style="fill:#030104;" d="M10.728,9.912c-3.255,0.865-4.127,3.512-2.673,5.553c0.686,0.961,2.58,1.23,3.404-0.083
				c0.772-1.229-0.041-2.4,1.009-3.509C11.786,11.799,10.84,11.414,10.728,9.912z"/>
		</g>
	</g>
	<g>
		<g>
			<path style="fill:#030104;" d="M14.082,11.648c2.376,2.385,5.104,1.817,6.145-0.462c0.489-1.075-0.225-2.851-1.774-2.907
				c-1.45-0.055-2.058,1.235-3.543,0.881C15.188,9.787,15.327,10.799,14.082,11.648z"/>
		</g>
	</g>
	<g>
		<circle style="fill:#030104;" cx="12.906" cy="9.812" r="1.296"/>
	</g>
	<path style="fill:#030104;" d="M14.906,20.812c0,0-0.379,0.313-2,0.313s-2-0.313-2-0.313c0,2.001-4,2.344-4,4v1h12v-1
		C18.906,23.156,14.906,22.813,14.906,20.812z"/>
</g>
<g>
</g>
<g>
</g>
<g>
</g>
<g>
</g>
<g>
</g>
<g>
</g>
<g>
</g>
<g>
</g>
<g>
</g>
<g>
</g>
<g>
</g>
<g>
</g>
<g>
</g>
<g>
</g>
<g>
</g>
</svg>
