<?xml version="1.0" encoding="iso-8859-1"?>
<!-- Generator: Adobe Illustrator 18.0.0, SVG Export Plug-In . SVG Version: 6.00 Build 0)  -->
<!DOCTYPE svg PUBLIC "-//W3C//DTD SVG 1.1//EN" "http://www.w3.org/Graphics/SVG/1.1/DTD/svg11.dtd">
<svg xmlns="http://www.w3.org/2000/svg" xmlns:xlink="http://www.w3.org/1999/xlink" version="1.1" id="Capa_1" x="0px" y="0px" viewBox="0 0 297 297" style="enable-background:new 0 0 297 297;" xml:space="preserve" width="512px" height="512px">
<path d="M287.116,40.77h-32.616c-5.458,0-9.884,4.425-9.884,9.884v22.732h-12.85V54.112c0-16.349-13.301-29.651-29.651-29.651  h-9.389c-7.588,0-14.517,2.868-19.767,7.574c-5.25-4.705-12.178-7.574-19.767-7.574h-9.389c-7.588,0-14.517,2.869-19.767,7.574  c-5.25-4.706-12.179-7.574-19.767-7.574h-9.389c-7.588,0-14.517,2.868-19.767,7.574c-5.25-4.705-12.179-7.574-19.767-7.574h-9.389  c-16.349,0-29.651,13.301-29.651,29.651v19.273H9.884C4.425,73.385,0,77.811,0,83.269c0,5.458,4.425,9.884,9.884,9.884h6.425v94.388  H9.884c-5.459,0-9.884,4.425-9.884,9.884s4.425,9.884,9.884,9.884h6.425v35.581c0,16.349,13.301,29.651,29.651,29.651h9.389  c7.588,0,14.517-2.868,19.767-7.574c5.25,4.705,12.179,7.574,19.767,7.574h9.389c7.588,0,14.517-2.869,19.767-7.574  c5.25,4.706,12.179,7.574,19.767,7.574h9.389c7.588,0,14.517-2.868,19.767-7.574c5.25,4.705,12.179,7.574,19.767,7.574h9.389  c16.349,0,29.651-13.301,29.651-29.651v-35.581h6.358c0.065,0.001,6.465,0.126,12.431,3.278c7.074,3.736,10.369,9.918,10.369,19.454  c0,5.458,4.425,9.884,9.884,9.884s9.884-4.425,9.884-9.884c0-31.181-25.415-42.499-42.499-42.499h-6.425V93.152h12.85v6.424  c0,5.458,4.425,9.884,9.884,9.884h32.616c5.458,0,9.884-4.425,9.884-9.884V50.653C297,45.195,292.575,40.77,287.116,40.77z   M55.349,252.771h-9.389c-5.449,0-9.884-4.434-9.884-9.884V54.112c0-5.449,4.434-9.884,9.884-9.884h9.389  c5.445,0,9.876,4.427,9.883,9.871c0,0.004,0,0.008,0,0.013v188.775l0,0.013C65.225,248.344,60.794,252.771,55.349,252.771z   M104.271,252.771h-9.389c-5.445,0-9.876-4.427-9.883-9.871l0-0.013V54.112c0-0.004,0-0.008,0-0.013  c0.007-5.444,4.438-9.871,9.883-9.871h9.389c5.449,0,9.884,4.434,9.884,9.884v188.775  C114.155,248.337,109.721,252.771,104.271,252.771z M153.195,252.771h-9.389c-5.449,0-9.884-4.434-9.884-9.884V54.112  c0-5.449,4.434-9.884,9.884-9.884h9.389c5.445,0,9.876,4.427,9.883,9.871c0,0.004,0,0.008,0,0.013v188.775l0,0.013  C163.071,248.344,158.64,252.771,153.195,252.771z M212.001,242.888c0,5.449-4.434,9.884-9.884,9.884h-9.389  c-5.445,0-9.876-4.427-9.883-9.871l0-0.013V54.112c0-0.004,0-0.008,0-0.013c0.007-5.444,4.438-9.871,9.883-9.871h9.389  c5.449,0,9.884,4.434,9.884,9.884V242.888z M277.233,89.693h-12.849V60.537h12.849V89.693z" fill="#D80027"/>
<g>
</g>
<g>
</g>
<g>
</g>
<g>
</g>
<g>
</g>
<g>
</g>
<g>
</g>
<g>
</g>
<g>
</g>
<g>
</g>
<g>
</g>
<g>
</g>
<g>
</g>
<g>
</g>
<g>
</g>
</svg>
