<?xml version='1.0' encoding='utf-8'?>
<!DOCTYPE svg PUBLIC '-//W3C//DTD SVG 1.1//EN' 'http://www.w3.org/Graphics/SVG/1.1/DTD/svg11.dtd'>
<svg version="1.1" xmlns="http://www.w3.org/2000/svg" viewBox="0 0 512 512" xmlns:xlink="http://www.w3.org/1999/xlink" enable-background="new 0 0 512 512">
  <g>
    <g>
      <path d="m341.5,22.6c-7.6-10.3-24.8-10.3-32.4,0-1.3,1.8-24.1,32.7-52,75.5v-16.4c0-39-31.1-70.7-69.2-70.7-38.2,0-69.2,31.7-69.2,70.7v184.3c-34.7,23.7-55.8,63.6-55.8,106.8 0,70.7 56.1,128.2 125,128.2 23.7,0 45.9-6.8 64.8-18.6 22.4,9.9 47.3,15.1 72.6,15.1 96.6,0 172.2-74.8 172.2-170.2 5.68434e-14-91-140-283.1-156-304.7zm-238.3,350.2c1.42109e-14-32.7 17.4-62.5 45.3-77.8 6.5-3.5 10.5-10.3 10.5-17.7v-195.6c0-16.8 13-30.5 29-30.5 16,0 29,13.7 29,30.5v195.6c0,7.4 4,14.1 10.5,17.7 27.9,15.3 45.3,45.1 45.3,77.8 0,48.5-38,87.9-84.8,87.9-46.8-5.68434e-14-84.8-39.4-84.8-87.9zm222.1,84.5c-13.3,0-26.5-1.9-39-5.5 16.7-21.8 26.6-49.2 26.6-79 0-43.2-21.1-83.1-55.8-106.7v-91.8c25-42.3 51.7-81.6 68.2-105.1 47.8,67.9 131.9,199.7 131.9,258.2 0.1,74-56.7,129.9-131.9,129.9z"/>
      <path d="m84.1,110.1c0-11.1-9-20.1-20.1-20.1h-29.4c-11.1,0-20.1,9-20.1,20.1 0,11.1 9,20.1 20.1,20.1h29.4c11.1,0 20.1-9 20.1-20.1z"/>
    </g>
  </g>
</svg>
