<?xml version='1.0' encoding='utf-8'?>
<!DOCTYPE svg PUBLIC '-//W3C//DTD SVG 1.1//EN' 'http://www.w3.org/Graphics/SVG/1.1/DTD/svg11.dtd'>
<svg version="1.1" xmlns="http://www.w3.org/2000/svg" viewBox="0 0 512 512" xmlns:xlink="http://www.w3.org/1999/xlink" enable-background="new 0 0 512 512">
  <g>
    <g>
      <path d="m272.5,277.2v-245.8c0-11.3-9.1-20.4-20.4-20.4h-115.2c-11.3,0-20.4,9.1-20.4,20.4v245.8c-30,23.7-47.5,59.7-47.5,98.3 0,69.2 56.3,125.5 125.5,125.5 69.2,0 125.5-56.3 125.5-125.5 0-38.6-17.6-74.6-47.5-98.3zm-78,183c-46.7,0-84.7-38-84.7-84.7 0-28.6 14.3-55.1 38.3-70.8 5.7-3.8 9.2-10.2 9.2-17.1v-235.8h74.3v235.8c0,6.9 3.5,13.3 9.2,17.1 24,15.7 38.3,42.2 38.3,70.8 0.1,46.7-37.9,84.7-84.6,84.7z"/>
      <path d="m422.6,235.6h-93.2c-11.3,0-20.4,9.1-20.4,20.4 0,11.3 9.1,20.4 20.4,20.4h93.2c11.3,0 20.4-9.1 20.4-20.4 0-11.3-9.1-20.4-20.4-20.4z"/>
      <path d="m329.4,104.7h26.2v26.2c0,11.3 9.1,20.4 20.4,20.4 11.3,0 20.4-9.1 20.4-20.4v-26.2h26.2c11.3,0 20.4-9.1 20.4-20.4 0-11.3-9.1-20.4-20.4-20.4h-26.2v-26.2c0-11.3-9.1-20.4-20.4-20.4-11.3,0-20.4,9.1-20.4,20.4v26.2h-26.2c-11.3,0-20.4,9.1-20.4,20.4 0,11.3 9.1,20.4 20.4,20.4z"/>
    </g>
  </g>
</svg>
